<?xml version="1.0" encoding="UTF-8"?>
<!-- Generator: visioncortex VTracer 0.6.4 -->
<svg version="1.1" xmlns="http://www.w3.org/2000/svg" width="1500" height="1500">
<path d="M0,0 L11,0 L24,3 L33,7 L43,13 L55,24 L68,37 L77,48 L79,50 L111,52 L158,59 L179,61 L213,61 L249,58 L272,55 L283,41 L294,30 L305,23 L316,18 L330,14 L339,13 L349,13 L363,16 L371,20 L381,29 L387,39 L392,53 L396,73 L398,92 L399,110 L399,157 L409,192 L415,218 L418,236 L419,248 L419,267 L416,286 L410,304 L400,323 L392,335 L379,353 L366,371 L356,386 L347,402 L341,417 L337,430 L333,454 L332,464 L332,507 L333,534 L338,577 L340,607 L340,645 L337,682 L332,717 L323,760 L313,799 L298,849 L284,890 L272,922 L258,956 L245,985 L231,1014 L219,1036 L206,1059 L193,1080 L182,1097 L172,1112 L161,1128 L147,1148 L134,1166 L118,1190 L106,1209 L92,1234 L81,1257 L72,1284 L68,1300 L67,1301 L45,1301 L46,1290 L59,1221 L72,1158 L95,1061 L105,1013 L111,976 L114,950 L116,919 L116,878 L114,836 L109,782 L105,745 L104,741 L93,742 L95,755 L101,813 L104,854 L105,878 L105,919 L102,959 L96,1001 L86,1051 L66,1135 L54,1190 L41,1256 L33,1300 L32,1301 L-151,1301 L-153,1295 L-164,1244 L-172,1212 L-183,1176 L-202,1121 L-212,1091 L-222,1054 L-232,1012 L-237,989 L-237,984 L-240,984 L-242,988 L-256,999 L-270,1011 L-282,1022 L-301,1041 L-310,1052 L-323,1069 L-335,1087 L-347,1107 L-361,1133 L-373,1159 L-385,1190 L-393,1218 L-399,1246 L-404,1283 L-406,1300 L-407,1301 L-495,1301 L-503,1272 L-524,1189 L-536,1142 L-548,1102 L-558,1075 L-572,1046 L-583,1028 L-597,1008 L-604,999 L-604,996 L-607,997 L-623,1023 L-639,1048 L-667,1090 L-693,1129 L-707,1153 L-717,1174 L-724,1192 L-733,1223 L-742,1265 L-748,1299 L-750,1301 L-866,1301 L-881,1262 L-896,1216 L-914,1156 L-926,1113 L-942,1049 L-952,1004 L-964,944 L-975,878 L-982,824 L-985,790 L-986,773 L-986,727 L-984,706 L-980,682 L-973,658 L-963,634 L-954,617 L-941,596 L-940,595 L-932,527 L-927,495 L-921,465 L-912,431 L-902,403 L-891,378 L-881,359 L-869,340 L-859,326 L-846,310 L-835,298 L-818,281 L-807,272 L-794,262 L-779,252 L-762,242 L-746,234 L-725,225 L-697,216 L-671,210 L-646,206 L-625,204 L-605,203 L-564,203 L-525,205 L-476,210 L-425,217 L-359,228 L-284,242 L-273,244 L-272,247 L-286,267 L-296,282 L-306,298 L-317,317 L-329,342 L-336,361 L-342,383 L-345,401 L-346,411 L-346,453 L-342,487 L-336,518 L-327,552 L-315,588 L-307,609 L-294,639 L-278,673 L-261,706 L-259,709 L-251,705 L-249,705 L-260,683 L-270,664 L-283,637 L-296,607 L-309,572 L-319,540 L-326,512 L-331,486 L-334,462 L-335,452 L-335,412 L-332,389 L-327,369 L-320,349 L-308,324 L-297,304 L-275,271 L-259,248 L-257,248 L-255,244 L-246,234 L-234,221 L-201,188 L-190,179 L-181,171 L-166,160 L-150,150 L-134,142 L-114,136 L-96,133 L-85,132 L-65,132 L-65,161 L-68,174 L-83,211 L-93,241 L-98,263 L-100,279 L-100,310 L-97,333 L-91,358 L-83,381 L-72,405 L-62,424 L-47,448 L-35,466 L-26,479 L-26,481 L-17,475 L-17,473 L-29,455 L-40,438 L-53,417 L-68,388 L-77,365 L-83,345 L-87,326 L-89,309 L-89,280 L-86,260 L-80,236 L-71,210 L-57,177 L-54,162 L-53,74 L-50,51 L-45,34 L-39,22 L-30,12 L-19,5 L-7,1 Z M296,59 L292,68 L293,71 L319,81 L334,89 L346,98 L355,106 L364,117 L377,135 L382,133 L388,129 L381,118 L368,102 L361,94 L353,87 L339,77 L324,69 L298,59 Z M59,60 L42,66 L26,74 L14,82 L4,90 L-10,104 L-19,117 L-26,129 L-26,132 L-16,137 L-5,119 L3,109 L15,97 L31,86 L47,78 L64,72 L65,70 L61,60 Z M257,136 L250,140 L246,147 L246,155 L250,162 L257,166 L265,166 L272,162 L276,155 L276,147 L272,140 L265,136 Z M107,140 L100,144 L96,151 L96,159 L100,166 L107,170 L115,170 L122,166 L126,159 L126,151 L122,144 L115,140 Z M183,180 L165,184 L153,190 L144,199 L138,211 L133,232 L131,249 L131,302 L133,313 L136,318 L144,323 L155,325 L208,325 L234,324 L246,321 L251,315 L254,307 L255,284 L255,253 L252,231 L248,217 L243,205 L236,195 L229,189 L221,185 L206,181 L198,180 Z " fill="#000000" transform="translate(1033,48)"/>
<path d="M0,0 L15,0 L32,3 L44,8 L57,17 L67,26 L79,38 L88,49 L97,51 L124,53 L171,60 L183,61 L213,61 L249,58 L263,56 L269,51 L277,41 L285,33 L295,26 L310,19 L324,15 L339,13 L353,13 L370,16 L380,20 L390,28 L397,37 L403,49 L409,75 L412,102 L413,120 L414,167 L424,204 L429,226 L432,246 L433,258 L433,281 L430,302 L425,319 L415,340 L401,361 L388,379 L375,397 L362,418 L355,434 L350,451 L347,469 L346,478 L346,517 L347,543 L352,587 L354,617 L354,659 L351,696 L347,726 L340,763 L325,823 L311,869 L297,910 L285,942 L271,976 L258,1005 L243,1036 L231,1058 L218,1081 L205,1102 L194,1119 L186,1131 L175,1147 L161,1167 L148,1185 L130,1212 L118,1231 L104,1256 L94,1277 L86,1301 L81,1320 L77,1324 L72,1325 L-151,1325 L-158,1323 L-161,1319 L-167,1292 L-176,1252 L-184,1222 L-195,1187 L-214,1133 L-224,1101 L-240,1037 L-243,1022 L-248,1024 L-259,1034 L-267,1041 L-290,1064 L-299,1075 L-309,1088 L-323,1109 L-335,1129 L-349,1155 L-360,1179 L-370,1205 L-379,1234 L-385,1262 L-390,1297 L-392,1316 L-395,1323 L-402,1325 L-499,1325 L-504,1320 L-509,1304 L-534,1205 L-546,1159 L-558,1119 L-568,1093 L-574,1081 L-579,1073 L-587,1056 L-600,1037 L-600,1035 L-606,1035 L-608,1040 L-620,1059 L-636,1084 L-653,1109 L-681,1151 L-695,1175 L-704,1194 L-713,1219 L-720,1243 L-729,1286 L-735,1319 L-740,1324 L-745,1325 L-867,1325 L-874,1322 L-878,1314 L-892,1276 L-906,1233 L-924,1173 L-937,1126 L-946,1090 L-948,1085 L-952,1065 L-962,1020 L-973,965 L-985,893 L-992,838 L-995,802 L-996,787 L-996,737 L-994,714 L-990,690 L-984,668 L-976,647 L-966,626 L-950,599 L-949,597 L-942,536 L-936,498 L-930,469 L-922,438 L-912,409 L-899,380 L-889,361 L-877,342 L-863,323 L-852,310 L-843,300 L-827,284 L-816,275 L-799,262 L-784,252 L-766,242 L-750,234 L-725,224 L-703,217 L-673,210 L-646,206 L-625,204 L-605,203 L-560,203 L-521,205 L-472,210 L-427,216 L-371,225 L-304,237 L-268,244 L-262,244 L-250,232 L-243,224 L-210,191 L-199,182 L-190,174 L-174,162 L-158,152 L-142,144 L-124,138 L-105,134 L-85,132 L-65,131 L-64,130 L-63,84 L-60,60 L-56,43 L-49,27 L-40,16 L-29,8 L-14,2 Z M2,12 L-12,15 L-24,21 L-34,30 L-41,41 L-46,55 L-49,69 L-51,86 L-52,174 L-55,189 L-67,217 L-77,245 L-83,267 L-86,283 L-87,292 L-87,321 L-84,344 L-78,368 L-71,388 L-62,408 L-50,431 L-38,450 L-27,467 L-14,486 L-22,492 L-24,493 L-26,488 L-40,468 L-51,450 L-61,434 L-75,407 L-85,382 L-92,359 L-96,339 L-98,322 L-98,291 L-95,270 L-89,246 L-80,220 L-65,183 L-63,173 L-63,144 L-83,144 L-107,147 L-126,152 L-138,157 L-152,164 L-171,177 L-187,190 L-197,199 L-205,206 L-240,241 L-247,249 L-255,258 L-255,260 L-258,261 L-271,280 L-291,310 L-304,332 L-316,356 L-325,381 L-330,401 L-333,424 L-333,464 L-330,492 L-325,519 L-319,544 L-312,569 L-301,601 L-288,633 L-276,659 L-262,688 L-247,717 L-252,719 L-257,721 L-267,702 L-279,679 L-292,651 L-303,626 L-316,592 L-327,557 L-336,521 L-341,492 L-344,465 L-344,423 L-341,400 L-335,376 L-329,359 L-321,341 L-309,318 L-298,300 L-288,285 L-277,269 L-270,259 L-271,256 L-362,239 L-423,229 L-474,222 L-523,217 L-562,215 L-603,215 L-635,217 L-664,221 L-691,227 L-711,233 L-733,241 L-753,250 L-774,262 L-789,272 L-801,281 L-812,290 L-824,301 L-841,318 L-850,329 L-863,346 L-874,363 L-885,382 L-896,405 L-906,431 L-914,457 L-921,486 L-928,525 L-934,571 L-938,607 L-944,616 L-958,640 L-966,657 L-974,679 L-980,704 L-983,726 L-984,739 L-984,785 L-981,826 L-976,868 L-969,915 L-959,972 L-946,1035 L-933,1090 L-922,1133 L-904,1195 L-886,1253 L-875,1285 L-864,1313 L-748,1313 L-746,1311 L-737,1262 L-730,1231 L-722,1204 L-711,1177 L-699,1154 L-686,1133 L-665,1102 L-639,1063 L-623,1038 L-608,1014 L-605,1009 L-602,1008 L-601,1012 L-587,1031 L-576,1048 L-566,1066 L-556,1087 L-546,1114 L-536,1147 L-523,1197 L-504,1273 L-494,1310 L-493,1313 L-405,1313 L-404,1312 L-398,1264 L-393,1238 L-386,1212 L-379,1191 L-367,1162 L-354,1135 L-341,1112 L-328,1091 L-315,1073 L-304,1059 L-290,1044 L-272,1026 L-261,1017 L-252,1009 L-238,998 L-238,996 L-235,996 L-234,1006 L-223,1054 L-214,1089 L-205,1118 L-194,1151 L-180,1191 L-170,1224 L-161,1260 L-150,1312 L-149,1313 L34,1313 L36,1306 L51,1227 L63,1169 L79,1101 L91,1049 L99,1007 L104,971 L107,931 L107,890 L105,849 L100,794 L96,758 L95,754 L106,753 L108,766 L114,824 L117,865 L118,890 L118,931 L116,962 L112,995 L105,1036 L93,1090 L77,1157 L65,1213 L52,1280 L47,1307 L47,1313 L69,1313 L72,1305 L77,1286 L84,1267 L97,1240 L111,1216 L127,1191 L139,1174 L152,1156 L163,1140 L174,1124 L184,1109 L195,1092 L212,1064 L227,1037 L243,1006 L258,973 L272,939 L283,910 L296,873 L305,845 L319,796 L328,759 L336,717 L340,685 L342,657 L342,619 L340,589 L335,546 L334,519 L334,476 L337,452 L341,435 L348,416 L356,401 L366,386 L376,372 L389,354 L396,344 L407,326 L414,311 L419,294 L421,279 L421,260 L419,241 L413,212 L403,175 L401,168 L401,122 L399,93 L396,73 L392,58 L384,42 L376,34 L367,29 L358,26 L351,25 L341,25 L328,27 L313,32 L300,39 L288,50 L279,60 L274,67 L241,71 L215,73 L181,73 L153,70 L113,64 L81,62 L71,51 L64,43 L49,28 L39,21 L29,16 L19,13 L13,12 Z " fill="#FEFEFE" transform="translate(1031,36)"/>
<path d="M0,0 L15,0 L32,3 L44,8 L52,14 L59,23 L64,34 L68,47 L71,63 L72,73 L72,104 L71,127 L67,137 L63,141 L51,144 L25,145 L-28,145 L-39,143 L-48,137 L-51,130 L-52,122 L-52,69 L-49,47 L-45,31 L-39,19 L-30,10 L-18,4 Z M2,51 L-12,53 L-20,58 L-24,64 L-24,76 L-18,86 L-6,92 L-1,93 L22,93 L31,91 L39,86 L46,78 L48,72 L48,62 L45,57 L37,53 L25,51 Z M7,96 L-7,101 L-23,112 L-33,116 L-42,119 L-42,130 L-31,129 L-18,124 L0,112 L9,109 L19,110 L29,115 L39,122 L48,126 L57,128 L62,127 L64,121 L63,116 L47,112 L31,101 L20,97 L15,96 Z " fill="#FEFEFE" transform="translate(1216,228)"/>
<path d="M0,0 L23,0 L35,2 L44,7 L46,11 L46,21 L43,29 L35,37 L27,41 L20,42 L-3,42 L-13,39 L-21,34 L-26,25 L-26,13 L-22,7 L-14,2 Z " fill="#030303" transform="translate(1218,279)"/>
<path d="M0,0 L10,3 L30,11 L45,19 L58,29 L68,38 L77,49 L87,62 L92,70 L83,76 L81,76 L68,58 L55,43 L41,32 L27,24 L8,16 L-4,11 L-1,1 Z " fill="#FFFFFF" transform="translate(1329,107)"/>
<path d="M0,0 L8,0 L20,3 L30,9 L40,16 L56,20 L57,27 L54,32 L45,31 L34,27 L23,20 L15,15 L7,13 L-2,14 L-12,19 L-22,26 L-32,31 L-43,34 L-49,34 L-49,23 L-40,20 L-28,15 L-14,5 Z " fill="#080808" transform="translate(1223,324)"/>
<path d="M0,0 L3,1 L6,11 L-4,15 L-21,22 L-36,31 L-47,40 L-59,52 L-66,62 L-75,77 L-85,72 L-84,67 L-74,51 L-66,41 L-52,27 L-35,15 L-19,7 L-3,1 Z " fill="#FFFFFF" transform="translate(1092,108)"/>
<path d="M0,0 L8,0 L15,4 L19,11 L19,19 L15,26 L8,30 L0,30 L-7,26 L-11,19 L-11,11 L-7,4 Z " fill="#FFFFFF" transform="translate(1140,188)"/>
<path d="M0,0 L8,0 L15,4 L19,11 L19,19 L15,26 L8,30 L0,30 L-7,26 L-11,19 L-11,11 L-7,4 Z " fill="#FFFFFF" transform="translate(1290,184)"/>
<path d="M0,0 Z " fill="#FFFFFF" transform="translate(772,274)"/>
</svg>
