<?xml version="1.0" encoding="UTF-8"?>
<!-- Generator: visioncortex VTracer 0.6.4 -->
<svg version="1.1" xmlns="http://www.w3.org/2000/svg" width="5200" height="1400">
<path d="M0,0 L11,0 L24,3 L33,7 L43,13 L55,24 L68,37 L77,48 L79,50 L111,52 L158,59 L179,61 L213,61 L249,58 L272,55 L283,41 L294,30 L305,23 L316,18 L330,14 L339,13 L349,13 L363,16 L371,20 L381,29 L387,39 L392,53 L396,73 L398,92 L399,110 L399,157 L409,192 L415,218 L418,236 L419,248 L419,267 L416,286 L410,304 L400,323 L392,335 L379,353 L366,371 L356,386 L347,402 L341,417 L337,430 L333,454 L332,464 L332,507 L333,534 L338,577 L340,607 L340,645 L337,682 L332,717 L323,760 L313,799 L298,849 L284,890 L272,922 L258,956 L245,985 L231,1014 L219,1036 L206,1059 L193,1080 L182,1097 L172,1112 L161,1128 L147,1148 L134,1166 L118,1190 L106,1209 L92,1234 L81,1257 L72,1284 L68,1300 L67,1301 L45,1301 L46,1290 L59,1221 L72,1158 L95,1061 L105,1013 L111,976 L114,950 L116,919 L116,878 L114,836 L109,782 L105,745 L104,741 L93,742 L95,755 L101,813 L104,854 L105,878 L105,919 L102,959 L96,1001 L86,1051 L66,1135 L54,1190 L41,1256 L33,1300 L32,1301 L-151,1301 L-153,1295 L-164,1244 L-172,1212 L-183,1176 L-202,1121 L-212,1091 L-222,1054 L-232,1012 L-237,989 L-237,984 L-240,984 L-242,988 L-256,999 L-270,1011 L-282,1022 L-301,1041 L-310,1052 L-323,1069 L-335,1087 L-347,1107 L-361,1133 L-373,1159 L-385,1190 L-393,1218 L-399,1246 L-404,1283 L-406,1300 L-407,1301 L-495,1301 L-503,1272 L-524,1189 L-536,1142 L-548,1102 L-558,1075 L-572,1046 L-583,1028 L-597,1008 L-604,999 L-604,996 L-607,997 L-623,1023 L-639,1048 L-667,1090 L-693,1129 L-707,1153 L-717,1174 L-724,1192 L-733,1223 L-742,1265 L-748,1299 L-750,1301 L-866,1301 L-881,1262 L-896,1216 L-914,1156 L-926,1113 L-942,1049 L-952,1004 L-964,944 L-975,878 L-982,824 L-985,790 L-986,773 L-986,727 L-984,706 L-980,682 L-973,658 L-963,634 L-954,617 L-941,596 L-940,595 L-932,527 L-927,495 L-921,465 L-912,431 L-902,403 L-891,378 L-881,359 L-869,340 L-859,326 L-846,310 L-835,298 L-818,281 L-807,272 L-794,262 L-779,252 L-762,242 L-746,234 L-725,225 L-697,216 L-671,210 L-646,206 L-625,204 L-605,203 L-564,203 L-525,205 L-476,210 L-425,217 L-359,228 L-284,242 L-273,244 L-272,247 L-286,267 L-296,282 L-306,298 L-317,317 L-329,342 L-336,361 L-342,383 L-345,401 L-346,411 L-346,453 L-342,487 L-336,518 L-327,552 L-315,588 L-307,609 L-294,639 L-278,673 L-261,706 L-259,709 L-251,705 L-249,705 L-260,683 L-270,664 L-283,637 L-296,607 L-309,572 L-319,540 L-326,512 L-331,486 L-334,462 L-335,452 L-335,412 L-332,389 L-327,369 L-320,349 L-308,324 L-297,304 L-275,271 L-259,248 L-257,248 L-255,244 L-246,234 L-234,221 L-201,188 L-190,179 L-181,171 L-166,160 L-150,150 L-134,142 L-114,136 L-96,133 L-85,132 L-65,132 L-65,161 L-68,174 L-83,211 L-93,241 L-98,263 L-100,279 L-100,310 L-97,333 L-91,358 L-83,381 L-72,405 L-62,424 L-47,448 L-35,466 L-26,479 L-26,481 L-17,475 L-17,473 L-29,455 L-40,438 L-53,417 L-68,388 L-77,365 L-83,345 L-87,326 L-89,309 L-89,280 L-86,260 L-80,236 L-71,210 L-57,177 L-54,162 L-53,74 L-50,51 L-45,34 L-39,22 L-30,12 L-19,5 L-7,1 Z M296,59 L292,68 L293,71 L319,81 L334,89 L346,98 L355,106 L364,117 L377,135 L382,133 L388,129 L381,118 L368,102 L361,94 L353,87 L339,77 L324,69 L298,59 Z M59,60 L42,66 L26,74 L14,82 L4,90 L-10,104 L-19,117 L-26,129 L-26,132 L-16,137 L-5,119 L3,109 L15,97 L31,86 L47,78 L64,72 L65,70 L61,60 Z M257,136 L250,140 L246,147 L246,155 L250,162 L257,166 L265,166 L272,162 L276,155 L276,147 L272,140 L265,136 Z M107,140 L100,144 L96,151 L96,159 L100,166 L107,170 L115,170 L122,166 L126,159 L126,151 L122,144 L115,140 Z M183,180 L165,184 L153,190 L144,199 L138,211 L133,232 L131,249 L131,302 L133,313 L136,318 L144,323 L155,325 L208,325 L234,324 L246,321 L251,315 L254,307 L255,284 L255,253 L252,231 L248,217 L243,205 L236,195 L229,189 L221,185 L206,181 L198,180 Z " fill="#000000" transform="translate(1033,48)"/>
<path d="M0,0 L27,0 L53,3 L73,8 L92,15 L111,25 L127,37 L139,48 L148,57 L161,74 L171,89 L184,114 L191,132 L197,153 L201,174 L203,192 L203,240 L200,265 L195,289 L189,310 L179,335 L169,355 L158,373 L144,392 L134,403 L129,408 L118,419 L99,433 L74,446 L58,452 L39,457 L20,460 L10,461 L-35,461 L-62,458 L-83,453 L-99,447 L-109,441 L-119,432 L-124,431 L-123,549 L-122,611 L-122,657 L-207,657 L-206,638 L-202,573 L-199,498 L-198,456 L-198,277 L-200,216 L-203,161 L-207,112 L-212,68 L-219,23 L-219,18 L-202,15 L-146,7 L-139,7 L-134,38 L-132,51 L-127,50 L-115,38 L-100,27 L-79,16 L-52,7 L-31,3 Z M-27,62 L-53,65 L-72,70 L-88,76 L-104,85 L-115,94 L-126,105 L-131,112 L-127,209 L-125,276 L-124,338 L-123,375 L-113,383 L-97,392 L-79,399 L-62,403 L-49,405 L-34,406 L-18,406 L8,403 L29,397 L41,392 L56,383 L67,374 L78,363 L89,348 L101,327 L109,308 L115,289 L120,265 L122,247 L122,206 L118,179 L113,160 L105,140 L96,123 L84,106 L73,94 L63,85 L45,74 L27,67 L7,63 L-2,62 Z " fill="#010101" transform="translate(4410,369)"/>
<path d="M0,0 L4,0 L2,55 L1,96 L-1,249 L4,247 L17,234 L31,224 L45,216 L65,208 L83,203 L106,199 L130,197 L156,197 L176,199 L195,203 L215,210 L231,218 L243,225 L256,235 L268,246 L275,253 L286,267 L296,281 L306,299 L315,318 L323,342 L328,365 L331,389 L331,436 L328,462 L323,486 L316,510 L308,530 L296,554 L284,573 L274,586 L263,599 L248,614 L235,624 L221,633 L206,641 L185,649 L167,654 L148,657 L138,658 L93,658 L66,655 L47,651 L27,644 L13,636 L5,629 L1,629 L-10,646 L-77,646 L-77,623 L-74,515 L-73,457 L-72,361 L-72,284 L-73,219 L-75,163 L-79,94 L-84,34 L-86,14 L-86,5 L-79,4 Z M101,259 L75,262 L52,268 L34,276 L23,283 L13,291 L2,302 L-3,309 L-3,333 L-2,424 L0,493 L3,554 L4,568 L6,573 L18,582 L35,591 L53,597 L71,601 L94,603 L110,603 L130,601 L151,596 L164,591 L181,582 L194,572 L207,559 L218,544 L228,526 L235,511 L242,490 L247,469 L250,444 L250,404 L247,381 L242,360 L234,339 L226,323 L218,311 L211,302 L202,292 L192,283 L178,274 L166,268 L151,263 L135,260 L126,259 Z " fill="#010101" transform="translate(1727,172)"/>
<path d="M0,0 L15,0 L32,3 L44,8 L57,17 L67,26 L79,38 L88,49 L97,51 L124,53 L171,60 L183,61 L213,61 L249,58 L263,56 L269,51 L277,41 L285,33 L295,26 L310,19 L324,15 L339,13 L353,13 L370,16 L380,20 L390,28 L397,37 L403,49 L409,75 L412,102 L413,120 L414,167 L424,204 L429,226 L432,246 L433,258 L433,281 L430,302 L425,319 L415,340 L401,361 L388,379 L375,397 L362,418 L355,434 L350,451 L347,469 L346,478 L346,517 L347,543 L352,587 L354,617 L354,659 L351,696 L347,726 L340,763 L325,823 L311,869 L297,910 L285,942 L271,976 L258,1005 L243,1036 L231,1058 L218,1081 L205,1102 L194,1119 L186,1131 L175,1147 L161,1167 L148,1185 L130,1212 L118,1231 L104,1256 L94,1277 L86,1301 L81,1320 L77,1324 L72,1325 L-151,1325 L-158,1323 L-161,1319 L-167,1292 L-176,1252 L-184,1222 L-195,1187 L-214,1133 L-224,1101 L-240,1037 L-243,1022 L-248,1024 L-259,1034 L-267,1041 L-290,1064 L-299,1075 L-309,1088 L-323,1109 L-335,1129 L-349,1155 L-360,1179 L-370,1205 L-379,1234 L-385,1262 L-390,1297 L-392,1316 L-395,1323 L-402,1325 L-499,1325 L-504,1320 L-509,1304 L-534,1205 L-546,1159 L-558,1119 L-568,1093 L-574,1081 L-579,1073 L-587,1056 L-600,1037 L-600,1035 L-606,1035 L-608,1040 L-620,1059 L-636,1084 L-653,1109 L-681,1151 L-695,1175 L-704,1194 L-713,1219 L-720,1243 L-729,1286 L-735,1319 L-740,1324 L-745,1325 L-867,1325 L-874,1322 L-878,1314 L-892,1276 L-906,1233 L-924,1173 L-937,1126 L-946,1090 L-948,1085 L-952,1065 L-962,1020 L-973,965 L-985,893 L-992,838 L-995,802 L-996,787 L-996,737 L-994,714 L-990,690 L-984,668 L-976,647 L-966,626 L-950,599 L-949,597 L-942,536 L-936,498 L-930,469 L-922,438 L-912,409 L-899,380 L-889,361 L-877,342 L-863,323 L-852,310 L-843,300 L-827,284 L-816,275 L-799,262 L-784,252 L-766,242 L-750,234 L-725,224 L-703,217 L-673,210 L-646,206 L-625,204 L-605,203 L-560,203 L-521,205 L-472,210 L-427,216 L-371,225 L-304,237 L-268,244 L-262,244 L-250,232 L-243,224 L-210,191 L-199,182 L-190,174 L-174,162 L-158,152 L-142,144 L-124,138 L-105,134 L-85,132 L-65,131 L-64,130 L-63,84 L-60,60 L-56,43 L-49,27 L-40,16 L-29,8 L-14,2 Z M2,12 L-12,15 L-24,21 L-34,30 L-41,41 L-46,55 L-49,69 L-51,86 L-52,174 L-55,189 L-67,217 L-77,245 L-83,267 L-86,283 L-87,292 L-87,321 L-84,344 L-78,368 L-71,388 L-62,408 L-50,431 L-38,450 L-27,467 L-14,486 L-22,492 L-24,493 L-26,488 L-40,468 L-51,450 L-61,434 L-75,407 L-85,382 L-92,359 L-96,339 L-98,322 L-98,291 L-95,270 L-89,246 L-80,220 L-65,183 L-63,173 L-63,144 L-83,144 L-107,147 L-126,152 L-138,157 L-152,164 L-171,177 L-187,190 L-197,199 L-205,206 L-240,241 L-247,249 L-255,258 L-255,260 L-258,261 L-271,280 L-291,310 L-304,332 L-316,356 L-325,381 L-330,401 L-333,424 L-333,464 L-330,492 L-325,519 L-319,544 L-312,569 L-301,601 L-288,633 L-276,659 L-262,688 L-247,717 L-252,719 L-257,721 L-267,702 L-279,679 L-292,651 L-303,626 L-316,592 L-327,557 L-336,521 L-341,492 L-344,465 L-344,423 L-341,400 L-335,376 L-329,359 L-321,341 L-309,318 L-298,300 L-288,285 L-277,269 L-270,259 L-271,256 L-362,239 L-423,229 L-474,222 L-523,217 L-562,215 L-603,215 L-635,217 L-664,221 L-691,227 L-711,233 L-733,241 L-753,250 L-774,262 L-789,272 L-801,281 L-812,290 L-824,301 L-841,318 L-850,329 L-863,346 L-874,363 L-885,382 L-896,405 L-906,431 L-914,457 L-921,486 L-928,525 L-934,571 L-938,607 L-944,616 L-958,640 L-966,657 L-974,679 L-980,704 L-983,726 L-984,739 L-984,785 L-981,826 L-976,868 L-969,915 L-959,972 L-946,1035 L-933,1090 L-922,1133 L-904,1195 L-886,1253 L-875,1285 L-864,1313 L-748,1313 L-746,1311 L-737,1262 L-730,1231 L-722,1204 L-711,1177 L-699,1154 L-686,1133 L-665,1102 L-639,1063 L-623,1038 L-608,1014 L-605,1009 L-602,1008 L-601,1012 L-587,1031 L-576,1048 L-566,1066 L-556,1087 L-546,1114 L-536,1147 L-523,1197 L-504,1273 L-494,1310 L-493,1313 L-405,1313 L-404,1312 L-398,1264 L-393,1238 L-386,1212 L-379,1191 L-367,1162 L-354,1135 L-341,1112 L-328,1091 L-315,1073 L-304,1059 L-290,1044 L-272,1026 L-261,1017 L-252,1009 L-238,998 L-238,996 L-235,996 L-234,1006 L-223,1054 L-214,1089 L-205,1118 L-194,1151 L-180,1191 L-170,1224 L-161,1260 L-150,1312 L-149,1313 L34,1313 L36,1306 L51,1227 L63,1169 L79,1101 L91,1049 L99,1007 L104,971 L107,931 L107,890 L105,849 L100,794 L96,758 L95,754 L106,753 L108,766 L114,824 L117,865 L118,890 L118,931 L116,962 L112,995 L105,1036 L93,1090 L77,1157 L65,1213 L52,1280 L47,1307 L47,1313 L69,1313 L72,1305 L77,1286 L84,1267 L97,1240 L111,1216 L127,1191 L139,1174 L152,1156 L163,1140 L174,1124 L184,1109 L195,1092 L212,1064 L227,1037 L243,1006 L258,973 L272,939 L283,910 L296,873 L305,845 L319,796 L328,759 L336,717 L340,685 L342,657 L342,619 L340,589 L335,546 L334,519 L334,476 L337,452 L341,435 L348,416 L356,401 L366,386 L376,372 L389,354 L396,344 L407,326 L414,311 L419,294 L421,279 L421,260 L419,241 L413,212 L403,175 L401,168 L401,122 L399,93 L396,73 L392,58 L384,42 L376,34 L367,29 L358,26 L351,25 L341,25 L328,27 L313,32 L300,39 L288,50 L279,60 L274,67 L241,71 L215,73 L181,73 L153,70 L113,64 L81,62 L71,51 L64,43 L49,28 L39,21 L29,16 L19,13 L13,12 Z " fill="#FEFEFE" transform="translate(1031,36)"/>
<path d="M0,0 L28,0 L49,2 L74,7 L92,13 L109,21 L123,30 L137,41 L147,51 L160,68 L168,81 L176,97 L182,112 L187,129 L191,151 L193,173 L193,204 L192,228 L191,237 L187,239 L-101,244 L-122,244 L-118,270 L-112,291 L-104,310 L-95,326 L-85,339 L-76,349 L-64,361 L-49,372 L-33,381 L-17,388 L3,394 L18,397 L36,399 L79,399 L116,396 L148,391 L175,385 L183,384 L183,393 L177,443 L175,448 L165,452 L141,458 L116,462 L82,465 L22,465 L-7,462 L-33,457 L-59,449 L-80,440 L-95,432 L-110,422 L-121,413 L-134,401 L-144,390 L-157,373 L-169,354 L-180,331 L-189,304 L-194,278 L-196,257 L-196,227 L-193,196 L-188,171 L-181,147 L-173,127 L-165,110 L-153,90 L-139,71 L-130,61 L-123,53 L-109,40 L-92,28 L-74,18 L-54,10 L-32,4 L-12,1 Z M7,58 L-17,60 L-36,65 L-54,73 L-67,82 L-77,91 L-86,101 L-96,116 L-106,137 L-113,158 L-118,181 L-119,191 L-74,191 L113,187 L117,186 L116,162 L113,141 L109,126 L103,110 L96,98 L88,88 L79,79 L65,70 L54,65 L35,60 L12,58 Z " fill="#010101" transform="translate(4899,365)"/>
<path d="M0,0 L28,0 L49,2 L74,7 L92,13 L109,21 L123,30 L137,41 L147,51 L160,68 L168,81 L176,97 L182,112 L187,129 L191,151 L193,173 L193,204 L192,228 L191,237 L187,239 L-101,244 L-122,244 L-118,270 L-112,291 L-104,310 L-95,326 L-85,339 L-76,349 L-64,361 L-49,372 L-33,381 L-17,388 L3,394 L18,397 L36,399 L79,399 L116,396 L148,391 L175,385 L183,384 L183,393 L177,443 L175,448 L165,452 L141,458 L116,462 L82,465 L22,465 L-7,462 L-33,457 L-59,449 L-80,440 L-95,432 L-110,422 L-121,413 L-134,401 L-144,390 L-157,373 L-169,354 L-180,331 L-189,304 L-194,278 L-196,257 L-196,227 L-193,196 L-188,171 L-181,147 L-173,127 L-165,110 L-153,90 L-139,71 L-130,61 L-123,53 L-109,40 L-92,28 L-74,18 L-54,10 L-32,4 L-12,1 Z M7,58 L-17,60 L-36,65 L-54,73 L-67,82 L-77,91 L-86,101 L-96,116 L-106,137 L-113,158 L-118,181 L-119,191 L-74,191 L113,187 L117,186 L116,162 L113,141 L109,126 L103,110 L96,98 L88,88 L79,79 L65,70 L54,65 L35,60 L12,58 Z " fill="#010101" transform="translate(2344,365)"/>
<path d="M0,0 L41,0 L72,3 L97,8 L120,16 L136,24 L151,34 L161,43 L169,52 L178,66 L185,83 L190,100 L193,119 L194,129 L194,183 L191,274 L191,330 L193,370 L197,411 L202,443 L201,448 L190,449 L131,451 L128,440 L126,427 L125,408 L118,411 L109,419 L94,429 L71,441 L49,449 L24,455 L4,458 L-7,459 L-48,459 L-67,456 L-84,451 L-105,441 L-117,433 L-128,424 L-135,417 L-143,406 L-149,396 L-156,377 L-159,362 L-160,352 L-160,330 L-157,309 L-152,292 L-145,277 L-138,265 L-127,251 L-114,238 L-97,225 L-79,215 L-54,205 L-29,198 L7,191 L40,187 L81,184 L108,183 L119,182 L120,170 L120,148 L118,130 L114,115 L109,103 L100,91 L89,83 L77,77 L58,71 L42,68 L21,66 L-27,66 L-64,69 L-93,73 L-123,79 L-136,82 L-140,82 L-139,68 L-133,20 L-124,17 L-99,11 L-63,5 L-35,2 Z M95,235 L54,237 L26,240 L-1,245 L-21,251 L-37,258 L-51,266 L-65,278 L-74,290 L-81,304 L-85,320 L-86,338 L-84,352 L-80,363 L-73,374 L-64,382 L-48,390 L-34,394 L-12,397 L18,397 L45,394 L70,388 L88,381 L107,371 L122,360 L120,253 L119,235 Z " fill="#010101" transform="translate(2782,370)"/>
<path d="M0,0 L93,0 L95,6 L101,26 L117,73 L136,125 L159,187 L173,226 L189,273 L200,309 L206,334 L208,346 L208,355 L213,355 L213,346 L219,317 L233,268 L254,203 L273,147 L289,96 L300,55 L306,28 L310,0 L393,0 L392,10 L387,29 L377,59 L361,100 L346,136 L327,180 L309,221 L290,266 L275,302 L255,353 L242,389 L231,422 L215,480 L201,523 L190,551 L179,574 L171,586 L162,596 L154,604 L144,611 L127,620 L106,627 L81,632 L63,634 L38,634 L37,630 L34,577 L34,571 L39,570 L60,568 L79,563 L94,557 L108,549 L121,539 L135,525 L146,510 L155,493 L161,475 L165,455 L166,443 L166,429 L163,410 L157,386 L148,357 L135,321 L117,275 L100,235 L84,198 L65,155 L47,114 L30,75 L17,45 L1,7 Z " fill="#010101" transform="translate(3727,385)"/>
<path d="M0,0 L4,0 L4,10 L-1,83 L-2,102 L-3,137 L68,135 L112,133 L128,133 L126,182 L125,201 L52,199 L-7,198 L-7,380 L-5,411 L-1,439 L5,462 L13,478 L24,490 L38,498 L52,503 L71,506 L96,506 L120,502 L138,498 L135,534 L133,556 L129,559 L106,566 L83,570 L60,571 L40,570 L18,567 L-4,561 L-23,552 L-35,543 L-46,532 L-53,521 L-61,505 L-67,486 L-72,464 L-76,433 L-78,396 L-78,312 L-77,198 L-131,200 L-152,200 L-151,165 L-150,141 L-149,135 L-131,135 L-110,136 L-72,137 L-72,121 L-69,38 L-68,14 L-67,7 Z " fill="#010101" transform="translate(3543,257)"/>
<path d="M0,0 L21,0 L45,3 L73,9 L90,14 L92,15 L90,25 L73,85 L72,87 L66,86 L48,80 L30,76 L5,74 L-12,75 L-29,78 L-47,84 L-60,91 L-73,101 L-80,108 L-90,122 L-99,139 L-104,152 L-104,351 L-103,418 L-103,447 L-104,448 L-183,448 L-183,431 L-179,339 L-177,270 L-177,193 L-179,153 L-183,109 L-188,71 L-195,31 L-197,21 L-197,17 L-188,15 L-125,6 L-118,6 L-116,13 L-110,53 L-109,63 L-109,73 L-105,73 L-103,68 L-92,54 L-81,42 L-69,30 L-53,18 L-36,9 L-18,3 Z " fill="#010101" transform="translate(3283,370)"/>
<path d="M0,0 L22,0 L26,2 L28,9 L28,23 L23,96 L22,115 L22,134 L23,135 L48,135 L122,132 L142,132 L149,134 L151,137 L151,174 L149,214 L147,221 L143,223 L100,223 L62,222 L19,222 L18,223 L17,256 L17,389 L19,420 L23,446 L29,467 L35,479 L44,489 L54,496 L66,501 L78,504 L85,505 L105,505 L128,501 L141,498 L155,498 L160,501 L161,503 L161,526 L157,569 L155,577 L149,581 L126,588 L105,592 L82,594 L70,594 L50,593 L27,590 L3,584 L-13,577 L-24,571 L-35,562 L-43,554 L-50,544 L-58,528 L-64,512 L-71,484 L-75,456 L-77,432 L-78,409 L-78,223 L-79,222 L-95,222 L-117,223 L-145,223 L-150,220 L-152,214 L-152,186 L-155,186 L-164,217 L-167,221 L-170,222 L-186,222 L-212,214 L-229,211 L-257,211 L-272,214 L-287,219 L-298,225 L-310,234 L-319,243 L-328,256 L-336,271 L-340,282 L-340,473 L-339,540 L-339,574 L-341,581 L-344,583 L-349,584 L-433,584 L-440,582 L-442,579 L-443,574 L-443,553 L-439,461 L-437,392 L-437,319 L-439,279 L-443,235 L-450,186 L-456,154 L-456,134 L-451,129 L-397,121 L-374,118 L-365,118 L-357,120 L-354,124 L-348,159 L-348,161 L-343,160 L-328,145 L-309,131 L-292,122 L-274,116 L-259,113 L-250,112 L-225,112 L-200,115 L-175,120 L-153,126 L-147,129 L-145,134 L-117,134 L-96,135 L-74,135 L-72,130 L-69,47 L-68,23 L-66,11 L-62,7 L-49,5 Z M12,11 L-55,18 L-56,25 L-59,100 L-60,132 L-60,148 L-98,147 L-119,146 L-137,146 L-138,152 L-140,201 L-140,211 L-119,211 L-65,209 L-66,323 L-66,407 L-64,444 L-60,475 L-54,501 L-48,518 L-40,534 L-32,545 L-21,556 L-7,565 L8,572 L30,578 L52,581 L80,582 L102,580 L121,576 L141,570 L145,567 L150,513 L150,509 L132,513 L108,517 L83,517 L64,514 L48,508 L36,501 L28,493 L21,482 L16,470 L10,445 L7,422 L5,391 L5,209 L64,210 L137,212 L140,150 L140,144 L124,144 L50,147 L9,148 L10,113 L14,48 L16,21 L16,11 Z M-248,124 L-266,127 L-284,133 L-301,142 L-314,152 L-324,161 L-337,174 L-350,191 L-353,195 L-353,197 L-357,197 L-357,187 L-361,155 L-365,131 L-366,130 L-380,131 L-443,140 L-445,141 L-444,150 L-437,189 L-432,224 L-428,263 L-426,292 L-425,317 L-425,394 L-427,463 L-431,555 L-431,572 L-352,572 L-351,571 L-351,542 L-352,475 L-352,276 L-344,257 L-335,241 L-324,228 L-314,219 L-301,211 L-287,205 L-273,201 L-260,199 L-241,198 L-218,200 L-193,206 L-179,211 L-176,211 L-170,192 L-156,142 L-156,139 L-171,134 L-197,128 L-217,125 L-227,124 Z M-153,181 Z " fill="#FEFEFE" transform="translate(3531,246)"/>
<path d="M0,0 L98,0 L105,2 L108,6 L115,30 L131,77 L150,129 L173,191 L187,230 L203,277 L212,305 L215,305 L230,256 L249,198 L263,157 L277,113 L290,67 L296,41 L300,17 L302,5 L306,1 L311,0 L398,0 L405,2 L407,6 L407,25 L402,46 L391,79 L375,120 L360,156 L341,200 L323,241 L304,286 L289,322 L269,373 L256,409 L246,439 L229,500 L215,543 L204,571 L192,596 L183,609 L174,619 L164,628 L150,637 L133,645 L113,651 L94,655 L68,658 L39,658 L32,656 L29,650 L28,644 L26,609 L26,576 L30,572 L40,570 L59,568 L80,562 L96,554 L108,546 L118,537 L129,526 L139,512 L147,497 L153,479 L156,464 L157,453 L157,443 L152,417 L140,377 L127,341 L109,295 L103,281 L90,250 L72,209 L53,166 L35,125 L22,95 L9,65 L-7,27 L-9,19 L-9,8 L-7,3 L-5,1 Z M3,12 L4,19 L20,57 L38,98 L51,128 L69,169 L88,212 L110,263 L130,312 L146,355 L158,391 L165,417 L168,432 L169,441 L169,455 L167,474 L162,494 L156,509 L147,525 L136,539 L122,553 L106,564 L90,572 L72,578 L56,581 L42,582 L37,583 L39,624 L40,642 L41,646 L66,646 L91,643 L116,637 L132,631 L149,622 L160,613 L172,601 L182,586 L193,563 L202,540 L214,505 L228,456 L236,428 L248,392 L261,357 L283,302 L301,259 L317,222 L335,181 L355,134 L375,84 L387,51 L394,27 L396,16 L396,12 L313,12 L309,40 L303,67 L292,108 L274,165 L249,239 L235,283 L224,322 L218,347 L216,358 L216,367 L211,367 L211,358 L206,333 L198,304 L180,249 L164,204 L148,161 L131,115 L112,62 L99,22 L97,13 L96,12 Z " fill="#FEFEFE" transform="translate(3724,373)"/>
<path d="M0,0 L31,0 L58,3 L80,8 L100,15 L123,27 L140,40 L152,51 L159,58 L172,75 L181,88 L190,104 L199,123 L206,143 L211,161 L215,183 L217,202 L217,254 L214,280 L209,305 L202,330 L192,355 L181,377 L170,395 L154,416 L145,426 L140,431 L131,440 L115,452 L102,460 L79,471 L61,477 L39,482 L14,485 L-35,485 L-63,482 L-86,477 L-105,470 L-109,470 L-109,559 L-108,621 L-108,674 L-111,679 L-117,681 L-207,681 L-214,679 L-216,676 L-217,670 L-216,648 L-212,583 L-209,508 L-208,466 L-208,291 L-210,230 L-213,175 L-217,126 L-223,76 L-228,44 L-228,23 L-224,19 L-217,17 L-154,8 L-145,7 L-136,7 L-128,9 L-125,15 L-122,34 L-121,36 L-116,35 L-103,26 L-80,15 L-58,8 L-32,3 Z M2,12 L-29,15 L-50,19 L-77,28 L-98,39 L-110,48 L-120,57 L-126,63 L-130,63 L-136,23 L-137,19 L-151,20 L-214,29 L-217,30 L-216,41 L-210,80 L-204,134 L-200,188 L-197,254 L-196,289 L-196,468 L-198,539 L-201,605 L-205,662 L-205,669 L-120,669 L-120,623 L-121,561 L-122,443 L-116,445 L-106,454 L-90,462 L-70,468 L-53,471 L-33,473 L12,473 L35,470 L56,465 L71,460 L96,448 L112,437 L123,428 L131,420 L136,415 L143,408 L158,388 L169,370 L181,347 L189,327 L195,309 L201,283 L204,263 L205,252 L205,204 L202,180 L197,158 L191,139 L183,120 L173,101 L163,86 L153,73 L142,61 L133,52 L116,39 L100,30 L84,23 L64,17 L49,14 L29,12 Z " fill="#FEFEFE" transform="translate(4408,357)"/>
<path d="M0,0 L31,0 L35,2 L36,4 L36,40 L34,109 L33,187 L33,228 L35,229 L44,224 L58,216 L78,208 L100,202 L125,198 L149,196 L179,196 L206,199 L227,204 L244,210 L261,218 L275,227 L288,237 L299,246 L310,259 L325,279 L335,296 L347,321 L355,345 L360,367 L363,387 L364,398 L364,449 L360,485 L352,517 L342,545 L327,575 L316,592 L304,608 L293,621 L280,634 L263,647 L245,658 L228,666 L204,674 L179,679 L161,681 L112,681 L84,678 L64,674 L48,669 L32,662 L31,661 L24,661 L22,665 L18,668 L13,669 L-58,669 L-65,667 L-67,664 L-68,659 L-68,632 L-65,524 L-64,466 L-63,370 L-63,297 L-64,232 L-66,176 L-70,107 L-75,47 L-77,27 L-77,12 L-74,6 L-68,4 L-60,3 Z M21,11 L-58,15 L-65,16 L-65,25 L-59,90 L-55,153 L-53,197 L-52,230 L-51,295 L-51,372 L-52,468 L-54,567 L-56,634 L-56,657 L11,657 L22,640 L27,641 L37,649 L53,657 L68,662 L93,667 L114,669 L159,669 L182,666 L203,661 L222,654 L239,646 L250,639 L261,631 L272,622 L288,606 L299,592 L311,575 L321,557 L333,532 L342,505 L347,484 L351,459 L352,447 L352,400 L349,376 L343,349 L336,329 L323,302 L313,286 L300,269 L288,256 L281,249 L264,236 L247,226 L231,219 L212,213 L189,209 L177,208 L151,208 L127,210 L104,214 L83,220 L64,228 L49,237 L36,247 L24,259 L20,260 L22,107 L24,38 L25,11 Z " fill="#FFFFFF" transform="translate(1706,161)"/>
<path d="M0,0 L32,0 L61,3 L84,8 L102,14 L121,23 L132,30 L145,40 L155,49 L166,62 L178,79 L188,98 L196,119 L201,137 L205,160 L207,183 L207,218 L206,242 L204,257 L200,261 L191,263 L-97,268 L-104,269 L-105,273 L-100,292 L-92,312 L-83,328 L-74,340 L-65,350 L-51,364 L-37,374 L-21,383 L-7,389 L13,395 L31,398 L40,399 L79,399 L115,396 L141,392 L169,386 L179,384 L189,384 L195,386 L197,390 L197,408 L190,464 L187,470 L175,475 L147,482 L120,486 L86,489 L22,489 L-8,486 L-35,481 L-59,474 L-75,468 L-98,457 L-115,446 L-129,435 L-144,421 L-153,410 L-162,399 L-174,381 L-186,358 L-194,337 L-200,316 L-204,293 L-206,271 L-206,237 L-203,205 L-198,179 L-192,157 L-183,133 L-173,112 L-161,92 L-148,75 L-140,65 L-128,52 L-118,43 L-100,30 L-80,19 L-60,11 L-38,5 L-12,1 Z M2,12 L-24,15 L-45,20 L-63,26 L-79,34 L-93,42 L-109,54 L-124,68 L-134,79 L-146,95 L-156,110 L-168,132 L-176,151 L-184,175 L-190,202 L-193,225 L-194,239 L-194,269 L-192,290 L-187,316 L-178,343 L-166,368 L-152,389 L-144,399 L-132,413 L-124,421 L-113,430 L-101,439 L-82,450 L-65,458 L-38,467 L-17,472 L11,476 L24,477 L84,477 L118,474 L148,469 L173,462 L178,459 L181,438 L185,405 L185,396 L177,397 L150,403 L118,408 L81,411 L38,411 L14,408 L-6,403 L-25,396 L-44,386 L-58,376 L-70,365 L-81,354 L-94,336 L-103,320 L-111,300 L-116,282 L-120,256 L-99,256 L189,251 L193,249 L194,240 L195,216 L195,185 L193,163 L188,137 L180,113 L172,96 L164,83 L152,67 L141,55 L132,47 L116,36 L101,28 L86,22 L63,16 L43,13 L30,12 Z " fill="#FEFEFE" transform="translate(2342,353)"/>
<path d="M0,0 L32,0 L61,3 L84,8 L102,14 L121,23 L132,30 L145,40 L155,49 L166,62 L178,79 L188,98 L196,119 L201,137 L205,159 L207,183 L207,218 L205,253 L202,260 L197,262 L191,263 L-97,268 L-104,269 L-105,273 L-100,292 L-92,312 L-83,328 L-74,340 L-65,350 L-51,364 L-37,374 L-21,383 L-7,389 L13,395 L31,398 L40,399 L79,399 L115,396 L141,392 L169,386 L179,384 L189,384 L195,386 L197,390 L197,408 L190,464 L187,470 L175,475 L147,482 L120,486 L86,489 L22,489 L-8,486 L-35,481 L-59,474 L-75,468 L-98,457 L-115,446 L-129,435 L-144,421 L-153,410 L-162,399 L-174,381 L-186,358 L-194,337 L-200,316 L-204,293 L-206,271 L-206,237 L-203,205 L-198,179 L-192,157 L-183,133 L-173,112 L-161,92 L-148,75 L-140,65 L-128,52 L-118,43 L-100,30 L-80,19 L-60,11 L-38,5 L-12,1 Z M2,12 L-24,15 L-45,20 L-63,26 L-79,34 L-93,42 L-109,54 L-124,68 L-134,79 L-146,95 L-156,110 L-168,132 L-176,151 L-184,175 L-190,202 L-193,225 L-194,239 L-194,269 L-192,290 L-187,316 L-178,343 L-166,368 L-152,389 L-144,399 L-132,413 L-124,421 L-113,430 L-101,439 L-82,450 L-65,458 L-38,467 L-17,472 L11,476 L24,477 L84,477 L118,474 L148,469 L173,462 L178,459 L181,438 L185,405 L185,396 L177,397 L150,403 L118,408 L81,411 L38,411 L14,408 L-6,403 L-25,396 L-44,386 L-58,376 L-70,365 L-81,354 L-94,336 L-103,320 L-111,300 L-116,282 L-120,256 L-99,256 L189,251 L193,249 L194,240 L195,216 L195,185 L193,163 L188,137 L180,113 L172,96 L164,83 L152,67 L141,55 L132,47 L116,36 L101,28 L86,22 L63,16 L43,13 L30,12 Z " fill="#FEFEFE" transform="translate(4897,353)"/>
<path d="M0,0 L45,0 L77,3 L94,6 L113,11 L132,18 L148,26 L160,34 L170,42 L177,49 L188,65 L196,81 L202,100 L206,120 L208,139 L208,197 L205,288 L205,340 L207,380 L211,420 L215,446 L215,467 L211,471 L194,473 L167,474 L126,474 L121,469 L117,449 L116,447 L111,448 L95,457 L76,466 L52,474 L29,479 L8,482 L-3,483 L-48,483 L-69,480 L-90,474 L-113,463 L-126,454 L-137,445 L-146,435 L-156,420 L-163,403 L-167,389 L-170,366 L-170,340 L-167,317 L-161,296 L-154,280 L-145,266 L-134,252 L-123,241 L-106,228 L-93,220 L-76,212 L-54,204 L-22,196 L13,190 L51,186 L81,184 L107,183 L110,180 L110,162 L108,146 L103,130 L99,122 L92,113 L83,106 L71,100 L51,94 L33,91 L21,90 L-23,90 L-60,93 L-93,98 L-126,105 L-144,105 L-148,103 L-149,101 L-149,77 L-143,29 L-140,22 L-131,18 L-101,11 L-64,5 L-35,2 Z M2,12 L-33,14 L-68,18 L-102,24 L-130,31 L-131,32 L-138,88 L-138,94 L-130,93 L-96,86 L-71,82 L-41,79 L-25,78 L23,78 L50,81 L67,85 L84,91 L97,99 L104,105 L113,119 L119,137 L121,149 L122,160 L122,182 L121,194 L110,195 L66,197 L24,201 L-8,206 L-39,213 L-63,221 L-81,229 L-95,237 L-108,247 L-120,258 L-127,265 L-138,280 L-144,290 L-152,310 L-156,326 L-158,342 L-158,364 L-155,385 L-149,403 L-143,415 L-135,426 L-126,436 L-114,446 L-99,455 L-82,463 L-65,468 L-46,471 L-5,471 L20,468 L44,463 L68,455 L93,443 L105,435 L118,425 L123,421 L127,420 L128,439 L132,461 L133,463 L192,461 L203,460 L204,455 L199,423 L195,382 L193,342 L193,286 L196,195 L196,141 L193,117 L188,98 L183,85 L177,73 L167,59 L156,48 L138,36 L122,28 L99,20 L74,15 L43,12 Z " fill="#FEFEFE" transform="translate(2780,358)"/>
<path d="M0,0 L19,0 L30,4 L38,10 L44,17 L47,23 L47,25 L49,25 L51,20 L59,10 L68,4 L79,0 L98,0 L108,3 L117,9 L124,16 L130,28 L133,42 L133,159 L107,159 L106,50 L104,41 L99,33 L93,28 L87,26 L70,26 L62,30 L57,36 L54,45 L53,50 L52,159 L26,159 L25,51 L22,38 L16,30 L8,26 L-10,26 L-20,31 L-25,38 L-28,50 L-29,159 L-55,159 L-55,2 L-29,2 L-28,19 L-19,9 L-10,3 Z " fill="#7E7E7E" transform="translate(2862,1152)"/>
<path d="M0,0 L25,0 L46,3 L62,8 L73,13 L84,19 L98,30 L108,40 L118,53 L127,68 L134,82 L141,101 L146,122 L149,145 L149,185 L146,210 L140,235 L132,257 L120,280 L112,292 L103,303 L91,315 L78,324 L59,334 L39,340 L21,343 L9,344 L-7,344 L-30,342 L-48,338 L-66,332 L-83,323 L-95,314 L-97,309 L-100,257 L-102,206 L-103,165 L-104,74 L-104,50 L-96,40 L-85,29 L-75,22 L-61,14 L-45,8 L-26,3 Z M2,12 L-22,15 L-43,21 L-57,27 L-71,36 L-81,45 L-90,54 L-92,58 L-91,163 L-89,232 L-86,293 L-85,303 L-80,308 L-66,317 L-55,322 L-40,327 L-26,330 L-5,332 L7,332 L25,330 L42,326 L55,321 L70,313 L79,306 L94,292 L103,281 L115,261 L123,244 L130,223 L135,200 L137,183 L137,147 L134,125 L128,103 L120,84 L112,69 L102,55 L91,43 L80,33 L67,25 L54,19 L37,14 L23,12 Z " fill="#FFFFFF" transform="translate(1828,431)"/>
<path d="M0,0 L25,0 L46,3 L62,8 L76,14 L91,24 L103,35 L112,45 L124,63 L133,80 L141,101 L146,122 L149,144 L149,185 L146,208 L141,231 L133,254 L125,271 L114,289 L103,303 L91,315 L77,325 L61,333 L43,339 L29,342 L9,344 L-7,344 L-30,342 L-48,338 L-66,332 L-83,323 L-95,314 L-96,313 L-97,276 L-98,214 L-101,120 L-104,50 L-96,40 L-85,29 L-75,22 L-61,14 L-42,7 L-26,3 Z M2,12 L-22,15 L-43,21 L-57,27 L-71,36 L-81,45 L-90,54 L-91,57 L-91,71 L-88,145 L-86,212 L-85,274 L-84,304 L-79,309 L-64,318 L-50,324 L-32,329 L-19,331 L-5,332 L7,332 L31,329 L51,323 L70,313 L82,304 L96,290 L106,276 L118,255 L126,235 L132,215 L136,192 L137,183 L137,146 L133,121 L127,101 L120,84 L111,68 L101,54 L92,44 L84,36 L69,26 L57,20 L42,15 L23,12 Z " fill="#FFFFFF" transform="translate(4383,431)"/>
<path d="M0,0 L20,0 L31,4 L40,11 L47,20 L52,33 L54,43 L54,117 L50,133 L45,143 L37,152 L29,157 L20,160 L13,161 L3,161 L-10,158 L-21,151 L-27,144 L-28,221 L-29,222 L-55,222 L-55,2 L-28,2 L-27,18 L-19,9 L-7,2 Z M-4,23 L-14,26 L-21,31 L-26,39 L-28,45 L-28,114 L-24,125 L-18,132 L-10,136 L-6,137 L6,137 L16,133 L23,126 L27,117 L28,112 L28,49 L24,36 L17,28 L9,24 Z " fill="#7E7E7E" transform="translate(3816,1152)"/>
<path d="M0,0 L15,0 L32,3 L44,8 L52,14 L59,23 L64,34 L68,47 L71,63 L72,73 L72,104 L71,127 L67,137 L63,141 L51,144 L25,145 L-28,145 L-39,143 L-48,137 L-51,130 L-52,122 L-52,69 L-49,47 L-45,31 L-39,19 L-30,10 L-18,4 Z M2,51 L-12,53 L-20,58 L-24,64 L-24,76 L-18,86 L-6,92 L-1,93 L22,93 L31,91 L39,86 L46,78 L48,72 L48,62 L45,57 L37,53 L25,51 Z M7,96 L-7,101 L-23,112 L-33,116 L-42,119 L-42,130 L-31,129 L-18,124 L0,112 L9,109 L19,110 L29,115 L39,122 L48,126 L57,128 L62,127 L64,121 L63,116 L47,112 L31,101 L20,97 L15,96 Z " fill="#FEFEFE" transform="translate(1216,228)"/>
<path d="M0,0 L27,0 L28,78 L38,68 L52,61 L56,60 L75,60 L86,64 L92,68 L97,73 L103,81 L108,95 L110,108 L110,173 L107,189 L99,205 L91,213 L79,219 L68,221 L59,221 L49,219 L37,213 L29,205 L28,203 L27,219 L1,219 L0,218 Z M51,83 L41,86 L32,94 L28,103 L27,108 L27,172 L30,182 L34,188 L41,194 L49,197 L61,197 L70,194 L77,188 L82,178 L84,165 L84,115 L82,102 L78,94 L73,89 L67,85 L58,83 Z " fill="#7F7F7F" transform="translate(2136,1092)"/>
<path d="M0,0 L27,0 L28,78 L35,70 L44,64 L51,61 L56,60 L76,60 L88,64 L96,70 L103,78 L108,90 L111,106 L111,218 L110,219 L85,219 L84,218 L83,107 L79,96 L75,91 L68,87 L64,86 L46,86 L37,90 L31,97 L28,106 L27,218 L26,219 L0,219 Z " fill="#7E7E7E" transform="translate(1796,1092)"/>
<path d="M0,0 L27,0 L28,144 L42,125 L56,106 L70,87 L84,68 L88,62 L118,62 L116,66 L102,84 L88,102 L77,116 L73,121 L74,126 L87,149 L102,176 L116,201 L125,217 L125,219 L96,219 L91,211 L73,177 L61,155 L56,146 L56,144 L54,144 L52,148 L41,162 L28,179 L27,218 L26,219 L1,219 L0,218 Z " fill="#7F7F7F" transform="translate(4657,1092)"/>
<path d="M0,0 L27,0 L28,78 L36,69 L46,63 L56,60 L76,60 L86,63 L95,69 L103,78 L108,89 L111,104 L111,219 L85,219 L84,113 L81,99 L75,91 L68,87 L55,85 L43,87 L35,92 L30,99 L28,106 L27,218 L26,219 L1,219 L0,218 Z " fill="#7E7E7E" transform="translate(4231,1092)"/>
<path d="M0,0 L21,0 L32,3 L42,8 L52,17 L58,27 L63,40 L65,52 L65,91 L-20,91 L-19,110 L-15,121 L-10,128 L-1,133 L8,135 L17,135 L27,132 L34,126 L39,117 L48,119 L63,124 L62,131 L56,142 L50,149 L39,156 L26,160 L19,161 L6,161 L-10,158 L-24,151 L-32,144 L-39,133 L-44,120 L-46,106 L-46,57 L-43,38 L-38,26 L-31,16 L-22,8 L-12,3 Z M5,24 L-4,27 L-10,31 L-16,39 L-20,51 L-20,68 L40,68 L40,56 L38,44 L33,34 L25,27 L16,24 Z " fill="#7E7E7E" transform="translate(3076,1152)"/>
<path d="M0,0 L21,0 L32,3 L42,8 L52,17 L59,28 L64,44 L65,51 L65,91 L-20,91 L-19,109 L-16,119 L-10,128 L2,134 L8,135 L18,135 L29,131 L36,123 L39,117 L48,119 L63,124 L62,131 L57,141 L49,150 L37,157 L26,160 L19,161 L6,161 L-10,158 L-24,151 L-31,145 L-38,135 L-43,123 L-45,114 L-46,104 L-46,59 L-44,43 L-39,28 L-32,17 L-22,8 L-9,2 Z M5,24 L-4,27 L-12,33 L-17,41 L-20,52 L-20,68 L40,68 L40,55 L37,41 L32,33 L25,27 L16,24 Z " fill="#7E7E7E" transform="translate(3948,1152)"/>
<path d="M0,0 L21,0 L32,3 L42,8 L52,17 L58,27 L62,36 L65,51 L65,91 L-20,91 L-19,110 L-15,121 L-10,128 L-1,133 L8,135 L17,135 L27,132 L35,125 L39,117 L48,119 L63,124 L62,131 L56,142 L49,150 L37,157 L26,160 L19,161 L6,161 L-10,158 L-24,151 L-32,144 L-39,133 L-44,120 L-46,105 L-46,58 L-44,43 L-40,30 L-33,18 L-26,11 L-17,5 L-6,1 Z M5,24 L-4,27 L-12,33 L-17,41 L-20,52 L-20,68 L40,68 L40,55 L37,41 L32,33 L25,27 L16,24 Z " fill="#7F7F7F" transform="translate(2578,1152)"/>
<path d="M0,0 L22,0 L35,4 L44,9 L52,16 L60,29 L64,42 L66,55 L66,91 L-20,91 L-18,112 L-14,122 L-8,129 L2,134 L8,135 L18,135 L27,132 L33,128 L38,120 L39,117 L49,119 L64,124 L62,133 L56,143 L47,152 L35,158 L19,161 L7,161 L-9,158 L-23,151 L-33,142 L-40,130 L-44,116 L-45,110 L-45,53 L-42,37 L-37,25 L-30,16 L-23,9 L-11,3 Z M6,24 L-4,27 L-13,35 L-18,46 L-20,58 L-20,68 L40,68 L40,50 L37,40 L31,31 L24,26 L17,24 Z " fill="#7E7E7E" transform="translate(4422,1152)"/>
<path d="M0,0 L22,0 L36,4 L47,11 L55,20 L62,34 L65,46 L66,54 L66,91 L-20,91 L-18,111 L-14,122 L-8,129 L-1,133 L8,135 L18,135 L28,132 L35,126 L40,117 L52,120 L64,124 L62,133 L56,143 L47,152 L35,158 L19,161 L7,161 L-9,158 L-23,151 L-32,143 L-39,132 L-43,121 L-45,109 L-45,53 L-42,38 L-37,26 L-31,17 L-24,10 L-14,4 Z M6,24 L-4,27 L-13,35 L-18,46 L-20,60 L-20,68 L40,68 L40,49 L36,38 L32,32 L24,26 L17,24 Z " fill="#7E7E7E" transform="translate(4841,1152)"/>
<path d="M0,0 L24,0 L36,3 L46,8 L56,17 L62,27 L66,42 L66,159 L41,159 L40,158 L39,147 L35,152 L27,157 L17,160 L10,161 L-2,161 L-18,158 L-29,152 L-37,144 L-41,136 L-44,125 L-44,103 L-41,91 L-35,81 L-31,76 L-20,69 L-4,65 L40,65 L39,43 L35,34 L31,29 L23,25 L19,24 L5,24 L-3,27 L-9,31 L-14,37 L-16,40 L-24,39 L-39,34 L-36,25 L-30,16 L-23,9 L-9,2 Z M2,87 L-8,90 L-14,95 L-18,103 L-19,107 L-19,120 L-16,128 L-11,133 L-3,137 L2,138 L18,138 L27,136 L35,131 L39,126 L40,123 L40,87 Z " fill="#7E7E7E" transform="translate(3306,1152)"/>
<path d="M0,0 L24,0 L36,3 L46,8 L56,17 L63,29 L66,42 L66,159 L41,159 L40,158 L39,147 L35,152 L27,157 L17,160 L10,161 L-2,161 L-18,158 L-29,152 L-37,144 L-41,136 L-44,125 L-44,103 L-41,92 L-36,82 L-31,76 L-20,69 L-4,65 L40,65 L39,43 L35,34 L31,29 L23,25 L19,24 L5,24 L-3,27 L-9,31 L-14,37 L-16,40 L-24,39 L-39,34 L-36,25 L-30,16 L-23,9 L-9,2 Z M2,87 L-8,90 L-14,95 L-18,103 L-19,107 L-19,120 L-16,128 L-11,133 L-3,137 L2,138 L18,138 L27,136 L35,131 L39,126 L40,123 L40,87 Z " fill="#7E7E7E" transform="translate(2321,1152)"/>
<path d="M0,0 L22,0 L35,4 L45,10 L50,14 L57,24 L62,35 L65,48 L66,57 L66,91 L-20,91 L-18,112 L-14,122 L-8,129 L2,134 L8,135 L18,135 L29,131 L34,127 L39,117 L48,119 L64,124 L62,132 L56,143 L48,151 L37,157 L27,160 L19,161 L7,161 L-9,158 L-25,150 L-33,142 L-39,132 L-43,122 L-45,111 L-45,52 L-42,37 L-37,25 L-31,17 L-23,9 L-9,2 Z M6,24 L-4,27 L-12,34 L-17,42 L-20,56 L-20,68 L40,68 L40,51 L36,38 L30,30 L21,25 L17,24 Z " fill="#7E7E7E" transform="translate(1987,1152)"/>
<path d="M0,0 L27,0 L35,25 L61,109 L63,115 L85,37 L95,2 L96,0 L123,0 L120,12 L101,75 L69,182 L63,200 L56,210 L48,216 L38,220 L32,221 L15,221 L15,196 L31,194 L39,189 L44,181 L49,165 L51,157 L37,114 L9,30 L0,2 Z " fill="#7E7E7E" transform="translate(3616,1154)"/>
<path d="M0,0 L23,0 L35,3 L47,9 L52,13 L59,23 L63,33 L64,40 L56,43 L39,48 L34,36 L29,30 L20,26 L3,26 L-7,30 L-14,38 L-18,49 L-18,112 L-14,123 L-9,129 L1,134 L7,135 L17,135 L27,132 L34,126 L38,118 L40,114 L49,116 L64,121 L63,129 L59,139 L52,148 L42,155 L31,159 L18,161 L5,161 L-11,158 L-21,154 L-30,147 L-37,139 L-42,129 L-45,118 L-46,110 L-46,51 L-43,35 L-38,23 L-31,14 L-23,8 L-13,3 Z " fill="#7E7E7E" transform="translate(4565,1152)"/>
<path d="M0,0 L23,0 L36,3 L47,9 L52,13 L59,23 L64,36 L63,41 L40,48 L38,45 L34,36 L29,30 L20,26 L3,26 L-7,30 L-14,38 L-17,45 L-18,50 L-18,111 L-15,121 L-9,129 L1,134 L7,135 L17,135 L27,132 L34,126 L38,118 L40,114 L49,116 L64,121 L63,129 L59,139 L51,149 L40,156 L27,160 L18,161 L5,161 L-11,158 L-20,154 L-29,148 L-37,139 L-42,129 L-45,118 L-46,109 L-46,52 L-44,38 L-39,25 L-33,17 L-28,12 L-20,6 L-6,1 Z " fill="#7E7E7E" transform="translate(4139,1152)"/>
<path d="M0,0 L24,0 L25,18 L26,81 L27,125 L12,136 L-11,148 L-32,155 L-57,160 L-77,162 L-107,162 L-129,159 L-143,155 L-159,147 L-168,139 L-175,128 L-179,117 L-181,103 L-180,85 L-176,69 L-169,55 L-162,46 L-157,40 L-143,29 L-124,19 L-100,11 L-75,6 L-52,3 L-25,1 Z M2,12 L-39,14 L-72,18 L-92,22 L-116,30 L-133,39 L-142,46 L-151,54 L-161,68 L-167,84 L-168,89 L-168,109 L-163,122 L-156,131 L-147,138 L-135,144 L-120,148 L-105,150 L-79,150 L-54,147 L-37,143 L-19,137 L2,126 L13,118 L14,116 L14,83 L13,20 L11,13 L10,12 Z " fill="#FFFFFF" transform="translate(2877,605)"/>
<path d="M0,0 L20,1 L37,4 L52,9 L65,16 L75,24 L84,33 L91,43 L99,59 L104,74 L108,95 L110,121 L110,128 L106,129 L-81,133 L-126,133 L-124,117 L-119,97 L-113,79 L-103,58 L-95,46 L-86,35 L-77,26 L-64,17 L-48,9 L-33,4 L-16,1 Z M-13,13 L-28,16 L-40,20 L-56,28 L-68,37 L-80,49 L-90,63 L-100,82 L-110,112 L-110,120 L-109,121 L-83,121 L95,117 L97,115 L97,106 L94,87 L88,67 L80,51 L72,41 L61,30 L48,22 L36,17 L24,14 L17,13 Z " fill="#FFFFFF" transform="translate(4906,423)"/>
<path d="M0,0 L20,1 L37,4 L52,9 L65,16 L75,24 L84,33 L91,43 L99,59 L104,74 L108,95 L110,121 L110,128 L106,129 L-81,133 L-126,133 L-124,117 L-119,97 L-113,79 L-103,58 L-95,46 L-86,35 L-77,26 L-64,17 L-48,9 L-33,4 L-16,1 Z M-13,13 L-28,16 L-40,20 L-56,28 L-68,37 L-80,49 L-90,63 L-100,82 L-110,112 L-110,120 L-109,121 L-83,121 L95,117 L97,115 L97,106 L94,87 L88,67 L80,51 L72,41 L61,30 L48,22 L36,17 L24,14 L17,13 Z " fill="#FFFFFF" transform="translate(2351,423)"/>
<path d="M0,0 L27,0 L27,45 L54,45 L54,69 L27,69 L28,168 L32,174 L36,176 L54,177 L54,202 L28,202 L18,199 L12,195 L6,188 L2,179 L0,167 L0,69 L-16,69 L-16,45 L0,45 Z " fill="#7E7E7E" transform="translate(3543,1109)"/>
<path d="M0,0 L27,0 L27,45 L54,45 L54,69 L27,69 L28,167 L31,173 L36,176 L54,177 L54,202 L28,202 L18,199 L10,193 L4,184 L1,174 L0,166 L0,69 L-16,69 L-16,45 L0,45 Z " fill="#7E7E7E" transform="translate(3180,1109)"/>
<path d="M0,0 L26,0 L26,45 L53,45 L53,69 L26,69 L27,165 L30,173 L35,176 L53,177 L53,202 L27,202 L16,198 L9,193 L3,183 L0,171 L0,69 L-16,69 L-16,45 L0,45 Z " fill="#7E7E7E" transform="translate(1710,1109)"/>
<path d="M0,0 L26,0 L27,181 L30,189 L34,192 L37,193 L52,194 L52,219 L32,219 L20,216 L11,210 L5,202 L1,192 L0,187 Z " fill="#7E7E7E" transform="translate(3411,1092)"/>
<path d="M0,0 L18,0 L28,5 L27,11 L20,30 L16,28 L10,26 L-4,26 L-17,30 L-25,36 L-29,41 L-33,52 L-34,158 L-35,159 L-61,159 L-61,2 L-34,2 L-33,21 L-26,13 L-16,6 L-4,1 Z " fill="#7E7E7E" transform="translate(5003,1152)"/>
<path d="M0,0 L18,0 L26,4 L28,8 L20,30 L15,28 L10,26 L-4,26 L-15,29 L-25,35 L-31,44 L-34,56 L-35,159 L-61,159 L-61,2 L-35,2 L-34,21 L-24,11 L-15,5 L-5,1 Z " fill="#7E7E7E" transform="translate(2487,1152)"/>
<path d="M0,0 L23,0 L35,2 L44,7 L46,11 L46,21 L43,29 L35,37 L27,41 L20,42 L-3,42 L-13,39 L-21,34 L-26,25 L-26,13 L-22,7 L-14,2 Z " fill="#030303" transform="translate(1218,279)"/>
<path d="M0,0 L90,0 L90,24 L0,24 Z " fill="#7F7F7F" transform="translate(2678,1220)"/>
<path d="M0,0 L10,3 L30,11 L45,19 L58,29 L68,38 L77,49 L87,62 L92,70 L83,76 L81,76 L68,58 L55,43 L41,32 L27,24 L8,16 L-4,11 L-1,1 Z " fill="#FFFFFF" transform="translate(1329,107)"/>
<path d="M0,0 L8,0 L20,3 L30,9 L40,16 L56,20 L57,27 L54,32 L45,31 L34,27 L23,20 L15,15 L7,13 L-2,14 L-12,19 L-22,26 L-32,31 L-43,34 L-49,34 L-49,23 L-40,20 L-28,15 L-14,5 Z " fill="#080808" transform="translate(1223,324)"/>
<path d="M0,0 L3,1 L6,11 L-4,15 L-21,22 L-36,31 L-47,40 L-59,52 L-66,62 L-75,77 L-85,72 L-84,67 L-74,51 L-66,41 L-52,27 L-35,15 L-19,7 L-3,1 Z " fill="#FFFFFF" transform="translate(1092,108)"/>
<path d="M0,0 L8,0 L15,4 L19,11 L19,19 L15,26 L8,30 L0,30 L-7,26 L-11,19 L-11,11 L-7,4 Z " fill="#FFFFFF" transform="translate(1140,188)"/>
<path d="M0,0 L8,0 L15,4 L19,11 L19,19 L15,26 L8,30 L0,30 L-7,26 L-11,19 L-11,11 L-7,4 Z " fill="#FFFFFF" transform="translate(1290,184)"/>
<path d="M0,0 L1,0 L1,9 L0,9 Z " fill="#FFFFFF" transform="translate(1743,190)"/>
<path d="M0,0 L1,4 Z " fill="#FFFFFF" transform="translate(2540,758)"/>
<path d="M0,0 L2,1 Z " fill="#FFFFFF" transform="translate(4816,820)"/>
<path d="M0,0 Z " fill="#FFFFFF" transform="translate(4823,823)"/>
<path d="M0,0 Z " fill="#FFFFFF" transform="translate(4821,822)"/>
<path d="M0,0 Z " fill="#FFFFFF" transform="translate(4819,821)"/>
<path d="M0,0 Z " fill="#FFFFFF" transform="translate(2261,820)"/>
<path d="M0,0 Z " fill="#FFFFFF" transform="translate(4814,819)"/>
<path d="M0,0 Z " fill="#FFFFFF" transform="translate(2034,736)"/>
<path d="M0,0 Z " fill="#FFFFFF" transform="translate(2035,734)"/>
<path d="M0,0 Z " fill="#FFFFFF" transform="translate(1640,631)"/>
<path d="M0,0 Z " fill="#FFFFFF" transform="translate(3325,358)"/>
<path d="M0,0 Z " fill="#FFFFFF" transform="translate(772,274)"/>
</svg>
